<svg xmlns="http://www.w3.org/2000/svg" version="1.1" xmlns:xlink="http://www.w3.org/1999/xlink" xmlns:svgjs="http://svgjs.com/svgjs" width="500" height="600" preserveAspectRatio="none" viewBox="0 0 500 600"><g mask="url(&quot;#SvgjsMask1024&quot;)" fill="none"><path d="M482.66 279.98 a16.73 16.73 0 1 0 33.46 0 a16.73 16.73 0 1 0 -33.46 0z" stroke="rgba(51, 51, 51, 1)"></path><path d="M152.71 453.91 a17.88 17.88 0 1 0 35.76 0 a17.88 17.88 0 1 0 -35.76 0z" stroke="#037b0b"></path><path d="M71.97 50.73L107.57 50.73L107.57 91.56L71.97 91.56z" stroke="#037b0b"></path><path d="M210.66 11.77L228.58 11.77L228.58 29.69L210.66 29.69z" fill="#037b0b"></path><path d="M442.2 475.1L475.88 475.1L475.88 508.78L442.2 508.78z" fill="rgba(255, 189, 0, 1)"></path><path d="M265.38 404.71a38.85 38.85 0 1 0-68.13-37.35z" stroke="rgba(51, 51, 51, 1)"></path><path d="M201.32 436.27L242.08 436.27L242.08 462.45L201.32 462.45z" fill="rgba(255, 189, 0, 1)"></path><path d="M235.35 166.78 a10.57 10.57 0 1 0 21.14 0 a10.57 10.57 0 1 0 -21.14 0z" stroke="rgba(255, 189, 0, 1)"></path><path d="M49.24 98.28L88.08 98.28L88.08 141.4L49.24 141.4z" fill="rgba(255, 189, 0, 1)"></path><path d="M164.45 535.56a33.56 33.56 0 1 0-55.35 37.95z" fill="rgba(255, 189, 0, 1)"></path><path d="M280.56 461.74a22.56 22.56 0 1 0-19.95 40.47z" stroke="rgba(255, 189, 0, 1)"></path><path d="M157.96 36.63L181.42 36.63L181.42 53.83L157.96 53.83z" stroke="rgba(255, 189, 0, 1)"></path><path d="M131.4 520.41 a37.66 37.66 0 1 0 75.32 0 a37.66 37.66 0 1 0 -75.32 0z" fill="#037b0b"></path><path d="M416.44-4.61a31.89 31.89 0 1 0-4.79 63.6z" stroke="#037b0b"></path><path d="M245.75 126.8L268.21 126.8L268.21 149.26L245.75 149.26z" fill="rgba(51, 51, 51, 1)"></path></g><defs><mask id="SvgjsMask1024"><rect width="500" height="600" fill="#ffffff"></rect></mask></defs></svg>