<?xml version="1.0" standalone="no"?>
<!DOCTYPE svg PUBLIC "-//W3C//DTD SVG 20010904//EN"
 "http://www.w3.org/TR/2001/REC-SVG-20010904/DTD/svg10.dtd">
<svg version="1.0" xmlns="http://www.w3.org/2000/svg"
 width="500.000000pt" height="500.000000pt" viewBox="0 0 500.000000 500.000000"
 preserveAspectRatio="xMidYMid meet">

<g transform="translate(0.000000,500.000000) scale(0.100000,-0.100000)"
fill="#000000" stroke="none">
<path d="M2840 4575 c-162 -20 -281 -48 -405 -95 l-80 -30 -308 0 -309 0 -34
-34 c-37 -37 -43 -70 -20 -115 26 -48 44 -51 367 -51 366 0 369 -1 369 -104 0
-33 -6 -49 -26 -70 l-27 -26 -454 0 c-498 0 -513 -2 -534 -57 -14 -37 -4 -92
21 -117 20 -20 33 -21 329 -24 l309 -3 26 -24 c47 -43 47 -107 -1 -151 l-26
-24 -259 0 c-263 0 -287 -3 -315 -39 -7 -9 -13 -37 -13 -62 0 -36 5 -50 26
-70 24 -22 35 -24 161 -29 127 -5 136 -6 154 -29 11 -13 22 -34 25 -48 9 -33
-22 -98 -52 -112 -17 -7 -134 -11 -355 -11 -266 0 -335 -3 -358 -14 -66 -35
-66 -137 0 -172 23 -12 121 -14 573 -14 l544 0 31 -26 c27 -22 31 -33 31 -73
0 -39 -5 -52 -27 -74 l-28 -26 -322 -3 -321 -3 -26 -24 c-35 -33 -36 -98 -2
-138 l24 -28 530 -3 530 -3 31 -28 c26 -24 31 -37 31 -73 -1 -50 -12 -68 -57
-91 -28 -15 -80 -17 -440 -17 -305 -1 -412 -4 -424 -13 -47 -36 -52 -105 -10
-148 l29 -29 723 0 722 0 33 -36 c38 -40 44 -79 18 -120 -33 -49 -57 -54 -274
-54 l-202 0 -29 -29 c-38 -39 -39 -87 -3 -130 l26 -31 539 0 c597 0 582 2 613
-63 21 -46 12 -90 -26 -122 l-30 -25 -278 0 -278 0 -31 -31 c-54 -53 -36 -132
36 -160 13 -5 137 -9 274 -9 287 0 278 4 214 -95 -81 -128 -237 -192 -490
-201 -218 -9 -448 24 -600 85 -102 42 -207 89 -237 108 -21 13 -41 23 -46 23
-4 0 -31 16 -61 35 -29 19 -55 35 -58 35 -3 0 -44 27 -91 61 -46 33 -95 65
-109 70 -13 5 -177 9 -364 9 l-340 0 -24 -25 c-36 -35 -35 -102 1 -138 l26
-26 310 -3 310 -3 29 -33 c38 -42 39 -89 4 -131 l-26 -30 -360 -3 -361 -3 -24
-28 c-17 -20 -24 -40 -24 -72 0 -36 5 -47 31 -69 l31 -26 499 0 c361 0 506 -3
522 -12 68 -36 72 -132 7 -176 -32 -21 -41 -22 -256 -22 -253 0 -252 0 -186
-69 33 -35 178 -113 297 -161 95 -38 130 -51 200 -73 76 -24 198 -55 303 -78
204 -43 568 -59 784 -35 79 9 159 20 178 26 19 5 58 14 85 21 166 39 357 122
496 215 87 59 219 187 282 275 84 119 151 275 189 444 17 79 18 503 1 560 -7
22 -20 67 -29 100 -62 219 -240 433 -477 572 -89 52 -296 147 -345 157 -17 4
-34 12 -37 17 -4 5 -16 9 -29 9 -12 0 -26 4 -31 9 -6 4 -53 21 -105 36 -52 15
-114 34 -138 41 -23 8 -51 14 -62 14 -10 0 -22 5 -25 10 -3 6 -14 10 -23 10
-9 0 -48 9 -87 20 -93 28 -165 48 -190 53 -50 12 -232 68 -247 77 -10 6 -23
10 -29 10 -27 0 -139 57 -196 99 -109 81 -153 189 -137 336 23 214 243 336
579 322 155 -6 242 -23 410 -79 104 -34 313 -132 398 -185 95 -60 127 -73 172
-73 66 0 116 30 165 97 105 146 264 381 276 410 37 87 4 170 -94 236 -102 69
-290 168 -407 216 -11 5 -33 14 -50 21 -16 7 -61 22 -100 35 -62 20 -104 32
-235 65 -208 53 -577 73 -810 45z"/>
<path d="M1307 4436 c-49 -37 -41 -133 13 -161 35 -18 207 -21 244 -4 29 14
61 79 52 107 -4 11 -16 32 -27 46 -20 25 -23 26 -142 26 -86 -1 -127 -5 -140
-14z"/>
<path d="M390 4051 c-66 -11 -75 -23 -75 -91 0 -87 18 -99 143 -100 104 0 141
13 160 55 47 103 -58 166 -228 136z"/>
<path d="M850 4050 l-104 -5 -23 -34 c-31 -45 -29 -69 8 -114 l30 -37 230 0
231 0 29 29 c33 34 38 75 14 121 -9 17 -17 31 -18 32 -8 6 -311 12 -397 8z"/>
<path d="M404 3244 c-57 -28 -71 -103 -30 -151 l24 -28 219 -3 c253 -4 283 1
308 54 20 43 13 83 -21 115 -25 24 -29 24 -247 27 -185 2 -227 0 -253 -14z"/>
<path d="M1106 2825 c-41 -44 -40 -98 1 -139 25 -25 31 -26 140 -26 110 0 115
1 138 26 35 38 35 105 0 139 -23 24 -30 25 -140 25 -111 0 -117 -1 -139 -25z"/>
<path d="M2052 2034 c-18 -9 -34 -26 -37 -38 -14 -63 -8 -94 21 -121 26 -24
31 -25 185 -25 155 0 158 0 188 26 27 22 31 33 31 73 0 38 -5 52 -26 72 -24
23 -32 24 -177 27 -126 2 -158 0 -185 -14z"/>
<path d="M2839 1614 c-36 -38 -34 -107 4 -140 26 -22 36 -24 145 -24 96 0 121
4 138 18 51 41 57 96 15 141 l-29 31 -124 0 c-121 0 -125 -1 -149 -26z"/>
<path d="M940 1174 c-41 -17 -60 -47 -60 -96 0 -40 5 -53 26 -73 25 -23 35
-25 123 -25 78 0 102 4 128 20 55 33 55 125 0 159 -23 15 -190 26 -217 15z"/>
</g>
</svg>
